# xmcd
#
# Track frame offsets:
#	150
#	640
#	25634
#	49128
#	74647
#	95915
#	117030
#	137372
#	160383
#	184114
#	206416
#	229304
#	253588
#	274275
#	295332
#	318764
#
# Disc length: 4578 seconds
#
# Revision: 0
# Processed by: cddbd v1.5.2PL0 Copyright (c) Steve Scherf et al.
# Submitted via: dBpowerAMP V4.0
#
DISCID=e511e010
DTITLE=David Baldacci - Kamelklubben
DYEAR=2005
DGENRE=CD-BOK
TTITLE0=07.01
TTITLE1=07.02
TTITLE2=07.03
TTITLE3=07.04
TTITLE4=07.05
TTITLE5=07.06
TTITLE6=07.07
TTITLE7=07.08
TTITLE8=07.09
TTITLE9=07.10
TTITLE10=07.11
TTITLE11=07.12
TTITLE12=07.13
TTITLE13=07.14
TTITLE14=07.15
TTITLE15=07.16
EXTD=
EXTT0=
EXTT1=
EXTT2=
EXTT3=
EXTT4=
EXTT5=
EXTT6=
EXTT7=
EXTT8=
EXTT9=
EXTT10=
EXTT11=
EXTT12=
EXTT13=
EXTT14=
EXTT15=
PLAYORDER=
